o Simplified_Hull
v 3.9103548526763916 4.291963577270508 0.8076386451721191
v 3.9103357791900635 -2.0347232818603516 0.8076395988464355
v 3.9103548526763916 -2.0347232818603516 -0.11296701431274414
v -1.7405259609222412 -3.7594242095947266 -0.11296701431274414
v -1.9165587425231934 0.2181243896484375 -1.1509737968444824
v 7.621691906073425e-14 -5 -0.11296701431274414
v -3.9103548526763916 -2.0347232818603516 -0.11296701431274414
v -1.9165587425231934 0.2181243896484375 -1.1509737968444824
v -1.7405259609222412 -3.7594242095947266 -0.11296701431274414
v -3.9103548526763916 -2.0347232818603516 -0.11296701431274414
v -3.9103548526763916 4.291963577270508 0.8076386451721191
v -3.9103548526763916 4.291963577270508 -0.11296796798706055
v 1.7405259609222412 -3.7594242095947266 -0.11296701431274414
v 7.621691906073425e-14 -5 -0.11296701431274414
v 1.916558027267456 0.2181224822998047 -1.1509737968444824
v 1.7405259609222412 -3.7594242095947266 -0.11296701431274414
v 1.916558027267456 0.2181224822998047 -1.1509737968444824
v 3.9103548526763916 -2.0347232818603516 -0.11296701431274414
v 1.7405259609222412 -3.7594242095947266 -0.11296701431274414
v 3.9103548526763916 -2.0347232818603516 -0.11296701431274414
v 3.9103357791900635 -2.0347232818603516 0.8076395988464355
v -1.9165582656860352 0.8499622344970703 -1.167555332183838
v -1.9165587425231934 0.2181243896484375 -1.1509737968444824
v -3.9103548526763916 -2.0347232818603516 -0.11296701431274414
v -1.9165582656860352 0.8499622344970703 -1.167555332183838
v -3.9103548526763916 -2.0347232818603516 -0.11296701431274414
v -3.9103548526763916 4.291963577270508 -0.11296796798706055
v -1.9165582656860352 0.8499622344970703 -1.167555332183838
v -3.9103548526763916 4.291963577270508 -0.11296796798706055
v -1.916557788848877 1.4818000793457031 -1.1509737968444824
v 1.4550502729776538e-13 5 -0.11296796798706055
v 1.7405258417129517 4.763986587524414 -0.11296796798706055
v 1.916558861732483 1.4817962646484375 -1.1509737968444824
v 1.4550502729776538e-13 5 -0.11296796798706055
v 1.6629145976887472e-13 5 0.8076386451721191
v 1.7405258417129517 4.763986587524414 -0.11296796798706055
v -1.2350763082504272 0.2181243896484375 -1.1509737968444824
v -1.9165587425231934 0.2181243896484375 -1.1509737968444824
v -1.9165582656860352 0.8499622344970703 -1.167555332183838
v -1.2350763082504272 0.2181243896484375 -1.1509737968444824
v 1.916558027267456 0.2181224822998047 -1.1509737968444824
v 7.621691906073425e-14 -5 -0.11296701431274414
v -1.2350763082504272 0.2181243896484375 -1.1509737968444824
v 7.621691906073425e-14 -5 -0.11296701431274414
v -1.9165587425231934 0.2181243896484375 -1.1509737968444824
v 3.9103548526763916 4.291963577270508 -0.11296796798706055
v 1.916558861732483 1.4817962646484375 -1.1509737968444824
v 1.7405258417129517 4.763986587524414 -0.11296796798706055
v 3.9103548526763916 4.291963577270508 -0.11296796798706055
v 1.7405258417129517 4.763986587524414 -0.11296796798706055
v 3.9103548526763916 4.291963577270508 0.8076386451721191
v 3.9103548526763916 4.291963577270508 -0.11296796798706055
v 3.9103548526763916 4.291963577270508 0.8076386451721191
v 3.9103548526763916 -2.0347232818603516 -0.11296701431274414
v 1.7405258417129517 4.763986587524414 0.8076386451721191
v 3.9103548526763916 4.291963577270508 0.8076386451721191
v 1.7405258417129517 4.763986587524414 -0.11296796798706055
v 1.7405258417129517 4.763986587524414 0.8076386451721191
v 1.7405258417129517 4.763986587524414 -0.11296796798706055
v 1.6629145976887472e-13 5 0.8076386451721191
v 1.7403489351272583 -3.7592811584472656 0.8076395988464355
v 1.7405259609222412 -3.7594242095947266 -0.11296701431274414
v 3.9103357791900635 -2.0347232818603516 0.8076395988464355
v 8.314572988443736e-14 -5 0.8076395988464355
v -1.7405259609222412 -3.7594242095947266 -0.11296701431274414
v 7.621691906073425e-14 -5 -0.11296701431274414
v 8.314572988443736e-14 -5 0.8076395988464355
v 7.621691906073425e-14 -5 -0.11296701431274414
v 1.7405259609222412 -3.7594242095947266 -0.11296701431274414
v 8.314572988443736e-14 -5 0.8076395988464355
v 1.7405259609222412 -3.7594242095947266 -0.11296701431274414
v 1.7403489351272583 -3.7592811584472656 0.8076395988464355
v 1.9165585041046143 0.8499584197998047 -1.167555332183838
v 1.916558027267456 0.2181224822998047 -1.1509737968444824
v -1.2350763082504272 0.2181243896484375 -1.1509737968444824
v 1.9165585041046143 0.8499584197998047 -1.167555332183838
v -1.2350763082504272 0.2181243896484375 -1.1509737968444824
v -1.9165582656860352 0.8499622344970703 -1.167555332183838
v 1.9165585041046143 0.8499584197998047 -1.167555332183838
v 1.916558861732483 1.4817962646484375 -1.1509737968444824
v 3.9103548526763916 4.291963577270508 -0.11296796798706055
v 1.9165585041046143 0.8499584197998047 -1.167555332183838
v 3.9103548526763916 4.291963577270508 -0.11296796798706055
v 3.9103548526763916 -2.0347232818603516 -0.11296701431274414
v 1.9165585041046143 0.8499584197998047 -1.167555332183838
v 3.9103548526763916 -2.0347232818603516 -0.11296701431274414
v 1.916558027267456 0.2181224822998047 -1.1509737968444824
v -1.2350753545761108 1.4817981719970703 -1.1509737968444824
v 1.916558861732483 1.4817962646484375 -1.1509737968444824
v 1.9165585041046143 0.8499584197998047 -1.167555332183838
v -1.2350753545761108 1.4817981719970703 -1.1509737968444824
v 1.9165585041046143 0.8499584197998047 -1.167555332183838
v -1.9165582656860352 0.8499622344970703 -1.167555332183838
v -1.2350753545761108 1.4817981719970703 -1.1509737968444824
v -1.9165582656860352 0.8499622344970703 -1.167555332183838
v -1.916557788848877 1.4818000793457031 -1.1509737968444824
v -1.2350753545761108 1.4817981719970703 -1.1509737968444824
v -1.916557788848877 1.4818000793457031 -1.1509737968444824
v 1.4550502729776538e-13 5 -0.11296796798706055
v -1.2350753545761108 1.4817981719970703 -1.1509737968444824
v 1.4550502729776538e-13 5 -0.11296796798706055
v 1.916558861732483 1.4817962646484375 -1.1509737968444824
v -1.7405260801315308 4.763986587524414 -0.11296796798706055
v -3.9103548526763916 4.291963577270508 -0.11296796798706055
v -3.9103548526763916 4.291963577270508 0.8076386451721191
v -1.7405260801315308 4.763986587524414 -0.11296796798706055
v 1.6629145976887472e-13 5 0.8076386451721191
v 1.4550502729776538e-13 5 -0.11296796798706055
v -1.7405260801315308 4.763986587524414 -0.11296796798706055
v 1.4550502729776538e-13 5 -0.11296796798706055
v -1.916557788848877 1.4818000793457031 -1.1509737968444824
v -1.7405260801315308 4.763986587524414 -0.11296796798706055
v -1.916557788848877 1.4818000793457031 -1.1509737968444824
v -3.9103548526763916 4.291963577270508 -0.11296796798706055
v 0.031526513397693634 4.658840179443359 0.9901700019836426
v 1.7405258417129517 4.763986587524414 0.8076386451721191
v 1.6629145976887472e-13 5 0.8076386451721191
v -3.588650941848755 2.191509246826172 0.990170955657959
v -3.588650941848755 -1.7711448669433594 0.990170955657959
v -1.2060184478759766 0.6823921203613281 1.1671977043151855
v -3.588650941848755 2.191509246826172 0.990170955657959
v -3.9103548526763916 4.291963577270508 0.8076386451721191
v -3.588650941848755 -1.7711448669433594 0.990170955657959
v 3.5886504650115967 -1.7711448669433594 0.990170955657959
v 1.233712911605835 0.2908763885498047 1.167555332183838
v 3.5487301349639893 -1.8402900695800781 0.990170955657959
v 3.5886504650115967 -1.7711448669433594 0.990170955657959
v 3.5487301349639893 -1.8402900695800781 0.990170955657959
v 3.9103357791900635 -2.0347232818603516 0.8076395988464355
v 3.5886504650115967 -1.7711448669433594 0.990170955657959
v 3.9103357791900635 -2.0347232818603516 0.8076395988464355
v 3.9103548526763916 4.291963577270508 0.8076386451721191
v 2.0815865993499756 -3.1977672576904297 0.990170955657959
v 0.03152651712298393 -4.5644378662109375 0.990170955657959
v 8.314572988443736e-14 -5 0.8076395988464355
v 2.0815865993499756 -3.1977672576904297 0.990170955657959
v 8.314572988443736e-14 -5 0.8076395988464355
v 1.7403489351272583 -3.7592811584472656 0.8076395988464355
v 2.0815865993499756 -3.1977672576904297 0.990170955657959
v 1.7403489351272583 -3.7592811584472656 0.8076395988464355
v 3.9103357791900635 -2.0347232818603516 0.8076395988464355
v 2.0815865993499756 -3.1977672576904297 0.990170955657959
v 3.9103357791900635 -2.0347232818603516 0.8076395988464355
v 3.5487301349639893 -1.8402900695800781 0.990170955657959
v 2.0815865993499756 -3.1977672576904297 0.990170955657959
v 3.5487301349639893 -1.8402900695800781 0.990170955657959
v 1.233712911605835 0.2908763885498047 1.167555332183838
v 2.0815865993499756 -3.1977672576904297 0.990170955657959
v 1.233712911605835 0.2908763885498047 1.167555332183838
v 0.03152651712298393 -4.5644378662109375 0.990170955657959
v -1.0338236093521118 0.9280300140380859 1.1566214561462402
v -1.2060184478759766 0.6823921203613281 1.1671977043151855
v 1.233712911605835 0.2908763885498047 1.167555332183838
v -0.04831525683403015 -4.5644378662109375 0.990170955657959
v -1.2060184478759766 0.6823921203613281 1.1671977043151855
v -2.081587076187134 -3.1977672576904297 0.990170955657959
v -0.04831525683403015 -4.5644378662109375 0.990170955657959
v -2.081587076187134 -3.1977672576904297 0.990170955657959
v 8.314572988443736e-14 -5 0.8076395988464355
v -0.04831525683403015 -4.5644378662109375 0.990170955657959
v 8.314572988443736e-14 -5 0.8076395988464355
v 0.03152651712298393 -4.5644378662109375 0.990170955657959
v -0.04831525683403015 -4.5644378662109375 0.990170955657959
v 0.03152651712298393 -4.5644378662109375 0.990170955657959
v 1.233712911605835 0.2908763885498047 1.167555332183838
v -0.04831525683403015 -4.5644378662109375 0.990170955657959
v 1.233712911605835 0.2908763885498047 1.167555332183838
v -1.2060184478759766 0.6823921203613281 1.1671977043151855
v -3.9103357791900635 -2.0347232818603516 0.8076395988464355
v -3.9103548526763916 -2.0347232818603516 -0.11296701431274414
v -1.7405259609222412 -3.7594242095947266 -0.11296701431274414
v -3.9103357791900635 -2.0347232818603516 0.8076395988464355
v -3.588650941848755 -1.7711448669433594 0.990170955657959
v -3.9103548526763916 4.291963577270508 0.8076386451721191
v -3.9103357791900635 -2.0347232818603516 0.8076395988464355
v -3.9103548526763916 4.291963577270508 0.8076386451721191
v -3.9103548526763916 -2.0347232818603516 -0.11296701431274414
v -3.5487306118011475 -1.8402900695800781 0.990170955657959
v -3.588650941848755 -1.7711448669433594 0.990170955657959
v -3.9103357791900635 -2.0347232818603516 0.8076395988464355
v -3.5487306118011475 -1.8402900695800781 0.990170955657959
v -3.9103357791900635 -2.0347232818603516 0.8076395988464355
v -2.081587076187134 -3.1977672576904297 0.990170955657959
v -3.5487306118011475 -1.8402900695800781 0.990170955657959
v -2.081587076187134 -3.1977672576904297 0.990170955657959
v -1.2060184478759766 0.6823921203613281 1.1671977043151855
v -3.5487306118011475 -1.8402900695800781 0.990170955657959
v -1.2060184478759766 0.6823921203613281 1.1671977043151855
v -3.588650941848755 -1.7711448669433594 0.990170955657959
v 3.588650703430176 0.2401123046875 0.990170955657959
v 1.233712911605835 0.2908763885498047 1.167555332183838
v 3.5886504650115967 -1.7711448669433594 0.990170955657959
v 3.588650703430176 0.2401123046875 0.990170955657959
v 3.5886504650115967 -1.7711448669433594 0.990170955657959
v 3.9103548526763916 4.291963577270508 0.8076386451721191
v 3.588650703430176 0.2401123046875 0.990170955657959
v 3.5886504650115967 2.191509246826172 0.990170955657959
v 1.233712911605835 0.2908763885498047 1.167555332183838
v -1.7405260801315308 4.763986587524414 0.8076386451721191
v 1.6629145976887472e-13 5 0.8076386451721191
v -1.7405260801315308 4.763986587524414 -0.11296796798706055
v -1.7405260801315308 4.763986587524414 0.8076386451721191
v -1.7405260801315308 4.763986587524414 -0.11296796798706055
v -3.9103548526763916 4.291963577270508 0.8076386451721191
v -1.7405260801315308 4.763986587524414 0.8076386451721191
v -3.9103548526763916 4.291963577270508 0.8076386451721191
v -2.081587076187134 4.369626998901367 0.9901700019836426
v -0.04831526055932045 4.658840179443359 0.9901700019836426
v 0.031526513397693634 4.658840179443359 0.9901700019836426
v 1.6629145976887472e-13 5 0.8076386451721191
v -0.04831526055932045 4.658840179443359 0.9901700019836426
v 1.6629145976887472e-13 5 0.8076386451721191
v -1.7405260801315308 4.763986587524414 0.8076386451721191
v -0.04831526055932045 4.658840179443359 0.9901700019836426
v -1.7405260801315308 4.763986587524414 0.8076386451721191
v -2.081587076187134 4.369626998901367 0.9901700019836426
v -0.04831526055932045 4.658840179443359 0.9901700019836426
v -2.081587076187134 4.369626998901367 0.9901700019836426
v -1.2060184478759766 0.6823921203613281 1.1671977043151855
v -0.04831526055932045 4.658840179443359 0.9901700019836426
v -1.2060184478759766 0.6823921203613281 1.1671977043151855
v -1.0338236093521118 0.9280300140380859 1.1566214561462402
v -0.04831526055932045 4.658840179443359 0.9901700019836426
v -1.0338236093521118 0.9280300140380859 1.1566214561462402
v 0.031526513397693634 4.658840179443359 0.9901700019836426
v -3.5487303733825684 4.008565902709961 0.9901700019836426
v -1.2060184478759766 0.6823921203613281 1.1671977043151855
v -2.081587076187134 4.369626998901367 0.9901700019836426
v -3.5487303733825684 4.008565902709961 0.9901700019836426
v -2.081587076187134 4.369626998901367 0.9901700019836426
v -3.9103548526763916 4.291963577270508 0.8076386451721191
v 3.5886504650115967 3.939420700073242 0.9901700019836426
v 3.9103548526763916 4.291963577270508 0.8076386451721191
v 3.5487303733825684 4.008565902709961 0.9901700019836426
v 3.5886504650115967 3.939420700073242 0.9901700019836426
v 3.5487303733825684 4.008565902709961 0.9901700019836426
v 1.233712911605835 0.2908763885498047 1.167555332183838
v 3.5886504650115967 3.939420700073242 0.9901700019836426
v 1.233712911605835 0.2908763885498047 1.167555332183838
v 3.5886504650115967 2.191509246826172 0.990170955657959
v 3.5886504650115967 3.939420700073242 0.9901700019836426
v 3.5886504650115967 2.191509246826172 0.990170955657959
v 3.588650703430176 0.2401123046875 0.990170955657959
v 3.5886504650115967 3.939420700073242 0.9901700019836426
v 3.588650703430176 0.2401123046875 0.990170955657959
v 3.9103548526763916 4.291963577270508 0.8076386451721191
v 2.0815865993499756 4.369626998901367 0.9901700019836426
v 1.7405258417129517 4.763986587524414 0.8076386451721191
v 0.031526513397693634 4.658840179443359 0.9901700019836426
v 2.0815865993499756 4.369626998901367 0.9901700019836426
v 0.031526513397693634 4.658840179443359 0.9901700019836426
v -1.0338236093521118 0.9280300140380859 1.1566214561462402
v 2.0815865993499756 4.369626998901367 0.9901700019836426
v -1.0338236093521118 0.9280300140380859 1.1566214561462402
v 1.233712911605835 0.2908763885498047 1.167555332183838
v 2.0815865993499756 4.369626998901367 0.9901700019836426
v 1.233712911605835 0.2908763885498047 1.167555332183838
v 3.5487303733825684 4.008565902709961 0.9901700019836426
v 2.0815865993499756 4.369626998901367 0.9901700019836426
v 3.5487303733825684 4.008565902709961 0.9901700019836426
v 3.9103548526763916 4.291963577270508 0.8076386451721191
v 2.0815865993499756 4.369626998901367 0.9901700019836426
v 3.9103548526763916 4.291963577270508 0.8076386451721191
v 1.7405258417129517 4.763986587524414 0.8076386451721191
v -1.7403489351272583 -3.7592811584472656 0.8076395988464355
v 8.314572988443736e-14 -5 0.8076395988464355
v -2.081587076187134 -3.1977672576904297 0.990170955657959
v -1.7403489351272583 -3.7592811584472656 0.8076395988464355
v -2.081587076187134 -3.1977672576904297 0.990170955657959
v -3.9103357791900635 -2.0347232818603516 0.8076395988464355
v -1.7403489351272583 -3.7592811584472656 0.8076395988464355
v -3.9103357791900635 -2.0347232818603516 0.8076395988464355
v -1.7405259609222412 -3.7594242095947266 -0.11296701431274414
v -1.7403489351272583 -3.7592811584472656 0.8076395988464355
v -1.7405259609222412 -3.7594242095947266 -0.11296701431274414
v 8.314572988443736e-14 -5 0.8076395988464355
v -3.588650941848755 3.939420700073242 0.9901700019836426
v -3.588650941848755 2.191509246826172 0.990170955657959
v -1.2060184478759766 0.6823921203613281 1.1671977043151855
v -3.588650941848755 3.939420700073242 0.9901700019836426
v -1.2060184478759766 0.6823921203613281 1.1671977043151855
v -3.5487303733825684 4.008565902709961 0.9901700019836426
v -3.588650941848755 3.939420700073242 0.9901700019836426
v -3.5487303733825684 4.008565902709961 0.9901700019836426
v -3.9103548526763916 4.291963577270508 0.8076386451721191
v -3.588650941848755 3.939420700073242 0.9901700019836426
v -3.9103548526763916 4.291963577270508 0.8076386451721191
v -3.588650941848755 2.191509246826172 0.990170955657959
vn 0.9999999997810392 -0.0000030133239754600637 0.00002070849404391486
vn 0.9999999997810392 -0.0000030133239754600637 0.00002070849404391486
vn 0.9999999997810392 -0.0000030133239754600637 0.00002070849404391486
vn -0.1823406813855856 -0.2558238205946678 -0.9493713966242019
vn -0.1823406813855856 -0.2558238205946678 -0.9493713966242019
vn -0.1823406813855856 -0.2558238205946678 -0.9493713966242019
vn -0.20320586822250897 -0.25565129470790804 -0.9451718312741376
vn -0.20320586822250897 -0.25565129470790804 -0.9451718312741376
vn -0.20320586822250897 -0.25565129470790804 -0.9451718312741376
vn -1 0 0
vn -1 0 0
vn -1 0 0
vn 0.1823407999985298 -0.25582396876960783 -0.94937133391464
vn 0.1823407999985298 -0.25582396876960783 -0.94937133391464
vn 0.1823407999985298 -0.25582396876960783 -0.94937133391464
vn 0.20320600050198545 -0.25565144141598956 -0.9451717631530863
vn 0.20320600050198545 -0.25565144141598956 -0.9451717631530863
vn 0.20320600050198545 -0.25565144141598956 -0.9451717631530863
vn 0.6222365457855793 -0.7828292795491808 0.000013013120138968508
vn 0.6222365457855793 -0.7828292795491808 0.000013013120138968508
vn 0.6222365457855793 -0.7828292795491808 0.000013013120138968508
vn -0.4405918374968769 -0.023550323904695178 -0.8973985819997208
vn -0.4405918374968769 -0.023550323904695178 -0.8973985819997208
vn -0.4405918374968769 -0.023550323904695178 -0.8973985819997208
vn -0.4675581161656509 -1.07471535773075e-7 -0.8839623340434909
vn -0.4675581161656509 -1.07471535773075e-7 -0.8839623340434909
vn -0.4675581161656509 -1.07471535773075e-7 -0.8839623340434909
vn -0.4352629605853927 0.023618777019236238 -0.8999935047068699
vn -0.4352629605853927 0.023618777019236238 -0.8999935047068699
vn -0.4352629605853927 0.023618777019236238 -0.8999935047068699
vn 0.04112472484006013 0.30328343047437206 -0.9520125617902981
vn 0.04112472484006013 0.30328343047437206 -0.9520125617902981
vn 0.04112472484006013 0.30328343047437206 -0.9520125617902981
vn 0.1343685650671641 0.9909314248331037 -1.614432206954024e-7
vn 0.1343685650671641 0.9909314248331037 -1.614432206954024e-7
vn 0.1343685650671641 0.9909314248331037 -1.614432206954024e-7
vn -1.884195022092979e-7 -0.026234210903614396 -0.999655823860507
vn -1.884195022092979e-7 -0.026234210903614396 -0.999655823860507
vn -1.884195022092979e-7 -0.026234210903614396 -0.999655823860507
vn -1.5111954828749335e-7 -0.19510073654697163 -0.9807832087667521
vn -1.5111954828749335e-7 -0.19510073654697163 -0.9807832087667521
vn -1.5111954828749335e-7 -0.19510073654697163 -0.9807832087667521
vn -3.004201898448362e-7 -0.19510077954884067 -0.9807832002126384
vn -3.004201898448362e-7 -0.19510077954884067 -0.9807832002126384
vn -3.004201898448362e-7 -0.19510077954884067 -0.9807832002126384
vn 0.06615318960678893 0.30409722866036415 -0.9503413234338147
vn 0.06615318960678893 0.30409722866036415 -0.9503413234338147
vn 0.06615318960678893 0.30409722866036415 -0.9503413234338147
vn 0.21256794480555316 0.9771462883525259 -1.5919734486519786e-7
vn 0.21256794480555316 0.9771462883525259 -1.5919734486519786e-7
vn 0.21256794480555316 0.9771462883525259 -1.5919734486519786e-7
vn 1 0 0
vn 1 0 0
vn 1 0 0
vn 0.21256794480555316 0.9771462883525259 -1.5919734486519786e-7
vn 0.21256794480555316 0.9771462883525259 -1.5919734486519786e-7
vn 0.21256794480555316 0.9771462883525259 -1.5919734486519786e-7
vn 0.1343685650671641 0.9909314248331037 -1.614432206954024e-7
vn 0.1343685650671641 0.9909314248331037 -1.614432206954024e-7
vn 0.1343685650671641 0.9909314248331037 -1.614432206954024e-7
vn 0.6221773105593011 -0.7828763224490837 0.00024077747665223403
vn 0.6221773105593011 -0.7828763224490837 0.00024077747665223403
vn 0.6221773105593011 -0.7828763224490837 0.00024077747665223403
vn -0.5804147134755379 -0.8143210425754034 1.3266974032195134e-7
vn -0.5804147134755379 -0.8143210425754034 1.3266974032195134e-7
vn -0.5804147134755379 -0.8143210425754034 1.3266974032195134e-7
vn 0.5804147134755379 -0.8143210425754034 1.326697261110966e-7
vn 0.5804147134755379 -0.8143210425754034 1.326697261110966e-7
vn 0.5804147134755379 -0.8143210425754034 1.326697261110966e-7
vn 0.5804980371983414 -0.8142616117357928 0.0002376179753482413
vn 0.5804980371983414 -0.8142616117357928 0.0002376179753482413
vn 0.5804980371983414 -0.8142616117357928 0.0002376179753482413
vn -2.0320173603296684e-8 -0.026234210903614857 -0.9996558238605245
vn -2.0320173603296684e-8 -0.026234210903614857 -0.9996558238605245
vn -2.0320173603296684e-8 -0.026234210903614857 -0.9996558238605245
vn -5.029880791830696e-8 -0.026234061994559674 -0.9996558277683691
vn -5.029880791830696e-8 -0.026234061994559674 -0.9996558277683691
vn -5.029880791830696e-8 -0.026234061994559674 -0.9996558277683691
vn 0.4352639279035377 0.02361812235398294 -0.8999930540634501
vn 0.4352639279035377 0.02361812235398294 -0.8999930540634501
vn 0.4352639279035377 0.02361812235398294 -0.8999930540634501
vn 0.4675582106621305 -1.074715298375077e-7 -0.8839622840610425
vn 0.4675582106621305 -1.074715298375077e-7 -0.8839622840610425
vn 0.4675582106621305 -1.074715298375077e-7 -0.8839622840610425
vn 0.4405911844645611 -0.02355098155840771 -0.8973988853568688
vn 0.4405911844645611 -0.02355098155840771 -0.8973988853568688
vn 0.4405911844645611 -0.02355098155840771 -0.8973988853568688
vn 2.0320173777061122e-8 0.026233885165054427 -0.9996558324089079
vn 2.0320173777061122e-8 0.026233885165054427 -0.9996558324089079
vn 2.0320173777061122e-8 0.026233885165054427 -0.9996558324089079
vn -1.0333917655723643e-8 0.02623373253326895 -0.9996558364143996
vn -1.0333917655723643e-8 0.02623373253326895 -0.9996558364143996
vn -1.0333917655723643e-8 0.02623373253326895 -0.9996558364143996
vn -1.5261981742139614e-7 0.026233885165054125 -0.9996558324088963
vn -1.5261981742139614e-7 0.026233885165054125 -0.9996558324088963
vn -1.5261981742139614e-7 0.026233885165054125 -0.9996558324088963
vn 2.947466731043004e-8 0.2829794515699133 -0.9591259719083777
vn 2.947466731043004e-8 0.2829794515699133 -0.9591259719083777
vn 2.947466731043004e-8 0.2829794515699133 -0.9591259719083777
vn 2.1918819298013486e-7 0.282979396738245 -0.9591259880858255
vn 2.1918819298013486e-7 0.282979396738245 -0.9591259880858255
vn 2.1918819298013486e-7 0.282979396738245 -0.9591259880858255
vn -0.21256797326125407 0.9771462821622858 -1.5919734385667967e-7
vn -0.21256797326125407 0.9771462821622858 -1.5919734385667967e-7
vn -0.21256797326125407 0.9771462821622858 -1.5919734385667967e-7
vn -0.13436853580292066 0.9909314288012836 -1.6144320713104657e-7
vn -0.13436853580292066 0.9909314288012836 -1.6144320713104657e-7
vn -0.13436853580292066 0.9909314288012836 -1.6144320713104657e-7
vn -0.04112474688564036 0.303283636832773 -0.9520124950981885
vn -0.04112474688564036 0.303283636832773 -0.9520124950981885
vn -0.04112474688564036 0.303283636832773 -0.9520124950981885
vn -0.06615324483034275 0.3040974513866471 -0.9503412483200772
vn -0.06615324483034275 0.3040974513866471 -0.9503412483200772
vn -0.06615324483034275 0.3040974513866471 -0.9503412483200772
vn 0.06446322183282613 0.475398788473919 0.8774055418952299
vn 0.06446322183282613 0.475398788473919 0.8774055418952299
vn 0.06446322183282613 0.475398788473919 0.8774055418952299
vn -0.07409470504738883 1.0396325900321539e-7 0.9972512094171306
vn -0.07409470504738883 1.0396325900321539e-7 0.9972512094171306
vn -0.07409470504738883 1.0396325900321539e-7 0.9972512094171306
vn -0.49348952652252004 9.06714548091511e-8 0.8697517388384864
vn -0.49348952652252004 9.06714548091511e-8 0.8697517388384864
vn -0.49348952652252004 9.06714548091511e-8 0.8697517388384864
vn 0.04994851122459878 -0.028837383625980567 0.998335390303306
vn 0.04994851122459878 -0.028837383625980567 0.998335390303306
vn 0.04994851122459878 -0.028837383625980567 0.998335390303306
vn 0.3519560675507569 -0.2032000858435068 0.9136939595003344
vn 0.3519560675507569 -0.2032000858435068 0.9136939595003344
vn 0.3519560675507569 -0.2032000858435068 0.9136939595003344
vn 0.4935099099516138 -0.000001393349383410512 0.8697401731423061
vn 0.4935099099516138 -0.000001393349383410512 0.8697401731423061
vn 0.4935099099516138 -0.000001393349383410512 0.8697401731423061
vn 0.25944864323890043 -0.389183127450118 0.883868143350375
vn 0.25944864323890043 -0.389183127450118 0.883868143350375
vn 0.25944864323890043 -0.389183127450118 0.883868143350375
vn 0.3342924216512394 -0.468910231097548 0.8175400736346777
vn 0.3342924216512394 -0.468910231097548 0.8175400736346777
vn 0.3342924216512394 -0.468910231097548 0.8175400736346777
vn 0.38958479069274665 -0.4902085501689428 0.7796917776930523
vn 0.38958479069274665 -0.4902085501689428 0.7796917776930523
vn 0.38958479069274665 -0.4902085501689428 0.7796917776930523
vn 0.28892225027734253 -0.31226313114868665 0.9049948454106768
vn 0.28892225027734253 -0.31226313114868665 0.9049948454106768
vn 0.28892225027734253 -0.31226313114868665 0.9049948454106768
vn 0.03834733727896375 -0.04144512476902168 0.9984046190580719
vn 0.03834733727896375 -0.04144512476902168 0.9984046190580719
vn 0.03834733727896375 -0.04144512476902168 0.9984046190580719
vn 0.029130099166930795 -0.04369621697738288 0.9986200868921025
vn 0.029130099166930795 -0.04369621697738288 0.9986200868921025
vn 0.029130099166930795 -0.04369621697738288 0.9986200868921025
vn 0.0060744242425004365 0.03876510555312553 0.9992298874441141
vn 0.0060744242425004365 0.03876510555312553 0.9992298874441141
vn 0.0060744242425004365 0.03876510555312553 0.9992298874441141
vn -0.026597127750927756 -0.03956994106152559 0.9988627596220555
vn -0.026597127750927756 -0.03956994106152559 0.9988627596220555
vn -0.026597127750927756 -0.03956994106152559 0.9988627596220555
vn -0.267190192044864 -0.39751354436463715 0.8778339155681399
vn -0.267190192044864 -0.39751354436463715 0.8778339155681399
vn -0.267190192044864 -0.39751354436463715 0.8778339155681399
vn 0 -0.3865044026792311 0.922287561831759
vn 0 -0.3865044026792311 0.922287561831759
vn 0 -0.3865044026792311 0.922287561831759
vn 0 -0.03650959881715915 0.9993333023542295
vn 0 -0.03650959881715915 0.9993333023542295
vn 0 -0.03650959881715915 0.9993333023542295
vn -0.005761352912670217 -0.0349897151041599 0.9993710655454986
vn -0.005761352912670217 -0.0349897151041599 0.9993710655454986
vn -0.005761352912670217 -0.0349897151041599 0.9993710655454986
vn -0.6222365457855793 -0.7828292795491808 0.000013013120138968508
vn -0.6222365457855793 -0.7828292795491808 0.000013013120138968508
vn -0.6222365457855793 -0.7828292795491808 0.000013013120138968508
vn -0.4935104917887041 -0.000001377370514789714 0.869739842994774
vn -0.4935104917887041 -0.000001377370514789714 0.869739842994774
vn -0.4935104917887041 -0.000001377370514789714 0.869739842994774
vn -0.9999999997810392 -0.0000030133235207127132 0.00002070849404391486
vn -0.9999999997810392 -0.0000030133235207127132 0.00002070849404391486
vn -0.9999999997810392 -0.0000030133235207127132 0.00002070849404391486
vn -0.3519563744372848 -0.20320025487346424 0.9136938036959215
vn -0.3519563744372848 -0.20320025487346424 0.9136938036959215
vn -0.3519563744372848 -0.20320025487346424 0.9136938036959215
vn -0.2889224265132966 -0.3122633369786981 0.9049947181263528
vn -0.2889224265132966 -0.3122633369786981 0.9049947181263528
vn -0.2889224265132966 -0.3122633369786981 0.9049947181263528
vn -0.034876101696103445 -0.03769345687137784 0.9986805599587731
vn -0.034876101696103445 -0.03769345687137784 0.9986805599587731
vn -0.034876101696103445 -0.03769345687137784 0.9986805599587731
vn -0.04652898059076988 -0.026863131934749197 0.998555670009359
vn -0.04652898059076988 -0.026863131934749197 0.998555670009359
vn -0.04652898059076988 -0.026863131934749197 0.998555670009359
vn 0.07511167754291147 9.61433642423737e-8 0.9971751279974248
vn 0.07511167754291147 9.61433642423737e-8 0.9971751279974248
vn 0.07511167754291147 9.61433642423737e-8 0.9971751279974248
vn 0.49348957465013865 3.438561868793885e-8 0.8697517115312992
vn 0.49348957465013865 3.438561868793885e-8 0.8697517115312992
vn 0.49348957465013865 3.438561868793885e-8 0.8697517115312992
vn 0.07511167754291134 1.1200691247674082e-7 0.997175127997423
vn 0.07511167754291134 1.1200691247674082e-7 0.997175127997423
vn 0.07511167754291134 1.1200691247674082e-7 0.997175127997423
vn -0.13436853580292066 0.9909314288012836 -1.6144322134190096e-7
vn -0.13436853580292066 0.9909314288012836 -1.6144322134190096e-7
vn -0.13436853580292066 0.9909314288012836 -1.6144322134190096e-7
vn -0.21256797326125407 0.9771462821622858 -1.5919734385667967e-7
vn -0.21256797326125407 0.9771462821622858 -1.5919734385667967e-7
vn -0.21256797326125407 0.9771462821622858 -1.5919734385667967e-7
vn -0.10712262470400698 0.49242816420509006 0.8637356345399496
vn -0.10712262470400698 0.49242816420509006 0.8637356345399496
vn -0.10712262470400698 0.49242816420509006 0.8637356345399496
vn -0.0000012837601952498207 0.4717551211729546 0.8817296102805229
vn -0.0000012837601952498207 0.4717551211729546 0.8817296102805229
vn -0.0000012837601952498207 0.4717551211729546 0.8817296102805229
vn -0.06480002385487986 0.47788265216422304 0.8760303234870898
vn -0.06480002385487986 0.47788265216422304 0.8760303234870898
vn -0.06480002385487986 0.47788265216422304 0.8760303234870898
vn -0.06624638210751103 0.4657345955046621 0.8824413314253668
vn -0.06624638210751103 0.4657345955046621 0.8824413314253668
vn -0.06624638210751103 0.4657345955046621 0.8824413314253668
vn -0.006598702659900437 0.046391271251662806 0.9989015502414945
vn -0.006598702659900437 0.046391271251662806 0.9989015502414945
vn -0.006598702659900437 0.046391271251662806 0.9989015502414945
vn -0.0035646073153043937 0.0455104145190643 0.9989575044740345
vn -0.0035646073153043937 0.0455104145190643 0.9989575044740345
vn -0.0035646073153043937 0.0455104145190643 0.9989575044740345
vn -0.000001454509729674061 0.04457136948200103 0.9990062026936486
vn -0.000001454509729674061 0.04457136948200103 0.9990062026936486
vn -0.000001454509729674061 0.04457136948200103 0.9990062026936486
vn -0.011150846016621176 0.045310760799508104 0.9989107035110214
vn -0.011150846016621176 0.045310760799508104 0.9989107035110214
vn -0.011150846016621176 0.045310760799508104 0.9989107035110214
vn -0.10768521915834577 0.4375706452674734 0.8927126211581338
vn -0.10768521915834577 0.4375706452674734 0.8927126211581338
vn -0.10768521915834577 0.4375706452674734 0.8927126211581338
vn 0.32252088202732687 0.18620502956617246 0.9280667904954772
vn 0.32252088202732687 0.18620502956617246 0.9280667904954772
vn 0.32252088202732687 0.18620502956617246 0.9280667904954772
vn 0.03971799350117934 0.022931031230848203 0.9989477708063271
vn 0.03971799350117934 0.022931031230848203 0.9989477708063271
vn 0.03971799350117934 0.022931031230848203 0.9989477708063271
vn 0.07511164050018086 1.6246044792017392e-7 0.9971751307876392
vn 0.07511164050018086 1.6246044792017392e-7 0.9971751307876392
vn 0.07511164050018086 1.6246044792017392e-7 0.9971751307876392
vn 0.44721359549995315 1.4572069237006862e-7 0.8944271909999063
vn 0.44721359549995315 1.4572069237006862e-7 0.8944271909999063
vn 0.44721359549995315 1.4572069237006862e-7 0.8944271909999063
vn 0.4934885297609802 1.453842798241222e-7 0.8697523043915003
vn 0.4934885297609802 1.453842798241222e-7 0.8697523043915003
vn 0.4934885297609802 1.453842798241222e-7 0.8697523043915003
vn 0.06564755067421163 0.46533495717245266 0.8826968770329873
vn 0.06564755067421163 0.46533495717245266 0.8826968770329873
vn 0.06564755067421163 0.46533495717245266 0.8826968770329873
vn 0.006044765645432786 0.04284739247078363 0.9990633422194741
vn 0.006044765645432786 0.04284739247078363 0.9990633422194741
vn 0.006044765645432786 0.04284739247078363 0.9990633422194741
vn 0.006983733846494969 0.04199886388483951 0.9990932503495078
vn 0.006983733846494969 0.04199886388483951 0.9990932503495078
vn 0.006983733846494969 0.04199886388483951 0.9990932503495078
vn 0.010172655640786253 0.04133597321752141 0.9990935163413756
vn 0.010172655640786253 0.04133597321752141 0.9990935163413756
vn 0.010172655640786253 0.04133597321752141 0.9990935163413756
vn 0.10768513511820146 0.43757045798635086 0.8927127230930396
vn 0.10768513511820146 0.43757045798635086 0.8927127230930396
vn 0.10768513511820146 0.43757045798635086 0.8927127230930396
vn 0.10712254288936611 0.4924280754497152 0.863735695287514
vn 0.10712254288936611 0.4924280754497152 0.863735695287514
vn 0.10712254288936611 0.4924280754497152 0.863735695287514
vn -0.33429286028701016 -0.4689107855603485 0.8175395762568968
vn -0.33429286028701016 -0.4689107855603485 0.8175395762568968
vn -0.33429286028701016 -0.4689107855603485 0.8175395762568968
vn -0.38958520509808625 -0.4902090830533567 0.7796912355930835
vn -0.38958520509808625 -0.4902090830533567 0.7796912355930835
vn -0.38958520509808625 -0.4902090830533567 0.7796912355930835
vn -0.6221773105592968 -0.7828763224490782 0.00024077750575606318
vn -0.6221773105592968 -0.7828763224490782 0.00024077750575606318
vn -0.6221773105592968 -0.7828763224490782 0.00024077750575606318
vn -0.5804980371983373 -0.814261611735787 0.00023761800445206994
vn -0.5804980371983373 -0.814261611735787 0.00023761800445206994
vn -0.5804980371983373 -0.814261611735787 0.00023761800445206994
vn -0.0740946679990046 1.6247284399786568e-7 0.9972512121697776
vn -0.0740946679990046 1.6247284399786568e-7 0.9972512121697776
vn -0.0740946679990046 1.6247284399786568e-7 0.9972512121697776
vn -0.04147800500926189 0.023947440493505136 0.9988523890917324
vn -0.04147800500926189 0.023947440493505136 0.9988523890917324
vn -0.04147800500926189 0.023947440493505136 0.9988523890917324
vn -0.3225199309053188 0.1862066403651556 0.9280667978398698
vn -0.3225199309053188 0.1862066403651556 0.9280667978398698
vn -0.3225199309053188 0.1862066403651556 0.9280667978398698
vn -0.4934892950002319 1.4170056765394342e-7 0.8697518702021595
vn -0.4934892950002319 1.4170056765394342e-7 0.8697518702021595
vn -0.4934892950002319 1.4170056765394342e-7 0.8697518702021595
f 1//1 2//2 3//3
f 4//4 5//5 6//6
f 7//7 8//8 9//9
f 10//10 11//11 12//12
f 13//13 14//14 15//15
f 16//16 17//17 18//18
f 19//19 20//20 21//21
f 22//22 23//23 24//24
f 25//25 26//26 27//27
f 28//28 29//29 30//30
f 31//31 32//32 33//33
f 34//34 35//35 36//36
f 37//37 38//38 39//39
f 40//40 41//41 42//42
f 43//43 44//44 45//45
f 46//46 47//47 48//48
f 49//49 50//50 51//51
f 52//52 53//53 54//54
f 55//55 56//56 57//57
f 58//58 59//59 60//60
f 61//61 62//62 63//63
f 64//64 65//65 66//66
f 67//67 68//68 69//69
f 70//70 71//71 72//72
f 73//73 74//74 75//75
f 76//76 77//77 78//78
f 79//79 80//80 81//81
f 82//82 83//83 84//84
f 85//85 86//86 87//87
f 88//88 89//89 90//90
f 91//91 92//92 93//93
f 94//94 95//95 96//96
f 97//97 98//98 99//99
f 100//100 101//101 102//102
f 103//103 104//104 105//105
f 106//106 107//107 108//108
f 109//109 110//110 111//111
f 112//112 113//113 114//114
f 115//115 116//116 117//117
f 118//118 119//119 120//120
f 121//121 122//122 123//123
f 124//124 125//125 126//126
f 127//127 128//128 129//129
f 130//130 131//131 132//132
f 133//133 134//134 135//135
f 136//136 137//137 138//138
f 139//139 140//140 141//141
f 142//142 143//143 144//144
f 145//145 146//146 147//147
f 148//148 149//149 150//150
f 151//151 152//152 153//153
f 154//154 155//155 156//156
f 157//157 158//158 159//159
f 160//160 161//161 162//162
f 163//163 164//164 165//165
f 166//166 167//167 168//168
f 169//169 170//170 171//171
f 172//172 173//173 174//174
f 175//175 176//176 177//177
f 178//178 179//179 180//180
f 181//181 182//182 183//183
f 184//184 185//185 186//186
f 187//187 188//188 189//189
f 190//190 191//191 192//192
f 193//193 194//194 195//195
f 196//196 197//197 198//198
f 199//199 200//200 201//201
f 202//202 203//203 204//204
f 205//205 206//206 207//207
f 208//208 209//209 210//210
f 211//211 212//212 213//213
f 214//214 215//215 216//216
f 217//217 218//218 219//219
f 220//220 221//221 222//222
f 223//223 224//224 225//225
f 226//226 227//227 228//228
f 229//229 230//230 231//231
f 232//232 233//233 234//234
f 235//235 236//236 237//237
f 238//238 239//239 240//240
f 241//241 242//242 243//243
f 244//244 245//245 246//246
f 247//247 248//248 249//249
f 250//250 251//251 252//252
f 253//253 254//254 255//255
f 256//256 257//257 258//258
f 259//259 260//260 261//261
f 262//262 263//263 264//264
f 265//265 266//266 267//267
f 268//268 269//269 270//270
f 271//271 272//272 273//273
f 274//274 275//275 276//276
f 277//277 278//278 279//279
f 280//280 281//281 282//282
f 283//283 284//284 285//285
f 286//286 287//287 288//288
